<?xml version="1.0" standalone="no"?>
<!DOCTYPE svg PUBLIC "-//W3C//DTD SVG 20010904//EN"
 "http://www.w3.org/TR/2001/REC-SVG-20010904/DTD/svg10.dtd">
<svg version="1.0" xmlns="http://www.w3.org/2000/svg"
 width="256.000000pt" height="256.000000pt" viewBox="0 0 256.000000 256.000000"
 preserveAspectRatio="xMidYMid meet">
<metadata>
Created by potrace 1.15, written by Peter Selinger 2001-2017
</metadata>
<g transform="translate(0.000000,256.000000) scale(0.100000,-0.100000)"
fill="#000000" stroke="none">
<path d="M1100 2442 c28 -4 16 -8 -60 -24 -52 -10 -134 -35 -183 -54 -48 -19
-92 -32 -99 -28 -7 4 -8 3 -4 -4 4 -7 -10 -20 -36 -33 -24 -12 -62 -35 -86
-51 -23 -16 -46 -27 -51 -24 -4 3 -17 -4 -27 -17 l-19 -22 25 20 25 20 -19
-23 c-11 -12 -25 -21 -32 -18 -18 7 -171 -156 -231 -244 -57 -85 -90 -145 -74
-136 7 4 8 1 5 -8 -3 -9 -9 -14 -14 -11 -4 2 -12 -7 -19 -21 -16 -35 -13 -44
4 -14 17 30 20 21 4 -14 -7 -14 -16 -23 -22 -19 -6 3 -7 1 -3 -6 4 -6 1 -33
-8 -59 -8 -26 -17 -58 -20 -72 -3 -14 -10 -41 -16 -60 -30 -89 -21 -451 11
-512 6 -10 5 -19 -1 -23 -5 -3 -10 -12 -9 -18 0 -7 3 -6 6 2 3 8 16 -15 29
-54 13 -38 21 -71 19 -74 -3 -2 -5 2 -5 9 0 7 -2 11 -5 8 -8 -7 6 -39 14 -34
4 3 22 -24 39 -60 18 -36 27 -62 21 -58 -14 9 -10 1 43 -78 21 -32 41 -58 45
-58 3 0 -1 8 -8 18 -13 15 -12 16 4 3 9 -7 16 -19 15 -25 -4 -17 72 -106 144
-168 34 -29 59 -47 54 -40 -13 21 8 12 44 -19 l35 -31 -35 22 -35 22 29 -26
c17 -13 33 -23 37 -20 12 7 120 -57 113 -67 -3 -5 2 -6 10 -3 8 3 31 -3 53
-14 63 -32 202 -72 302 -87 52 -8 96 -13 98 -11 3 2 345 596 433 751 l34 60
-49 -44 c-163 -143 -413 -173 -599 -73 -68 36 -164 128 -203 194 -40 65 -73
190 -73 272 1 241 163 450 396 511 47 12 158 15 621 15 l563 1 -11 22 c-35 66
-85 137 -123 172 -23 22 -31 31 -17 20 l26 -20 -25 30 c-57 69 -113 123 -124
119 -7 -3 -23 8 -36 23 l-25 28 30 -25 30 -25 -24 27 c-13 15 -27 25 -31 23
-11 -7 -146 86 -142 97 1 5 -2 7 -7 4 -5 -3 -42 9 -82 28 -172 79 -296 103
-549 108 -85 2 -139 2 -120 0z"/>
</g>
</svg>
