<?xml version="1.0" encoding="utf-8" standalone="no"?>
<!DOCTYPE svg PUBLIC "-//W3C//DTD SVG 20010904//EN" "http://www.w3.org/TR/2001/REC-SVG-20010904/DTD/svg10.dtd">
<svg grid="grid" width="1920px" height="1080px" xmlns="http://www.w3.org/2000/svg">
	<title>Whiteboard document - Compatible with Firefox</title>


	<path d="M652 161 Q652,161 652,161 Q652,161 652,165 Q652,165 652,190.3 Q652,190.3 654,247.8 Q654,247.8 659.2,327.8 Q659.2,327.8 666.3,412.8 Q666.3,412.8 674.9,496.1 Q674.9,496.1 684.9,572.6 Q684.9,572.6 696.2,636.7 Q696.2,636.7 707.3,689.5 Q707.3,689.5 716.9,730 Q716.9,730 724.8,761.3 Q724.8,761.3 730.7,784.6 Q730.7,784.6 734.6,799.1 Q734.6,799.1 737.1,807.2 Q737.1,807.2 739.1,811.6 Q739.1,811.6 741.1,814.6 Q741.1,814.6 742,816" stroke="rgb(0,0,0)" stroke-width="21" stroke-linecap="round" stroke-linejoin="round" fill="none" stroke-opacity="1.0" />

	<path d="M852 445 Q852,445 852,445 Q852,445 866,444.3 Q866,444.3 904,439.6 Q904,439.6 963.8,430.4 Q963.8,430.4 1033.8,421.4 Q1033.8,421.4 1101.8,414.1 Q1101.8,414.1 1160.1,408.7 Q1160.1,408.7 1198.3,405.8 Q1198.3,405.8 1217.9,405 Q1217.9,405 1224.3,405 Q1224.3,405 1225,405" stroke="rgb(0,0,0)" stroke-width="21" stroke-linecap="round" stroke-linejoin="round" fill="none" stroke-opacity="1.0" />

	<path d="M1051 203 Q1051,203 1051,203 Q1051,203 1050,215 Q1050,215 1048.5,258.4 Q1048.5,258.4 1048,334.8 Q1048,334.8 1048,425.5 Q1048,425.5 1047.5,514.8 Q1047.5,514.8 1046.5,595.2 Q1046.5,595.2 1046,659.2 Q1046,659.2 1047,703.5 Q1047,703.5 1049,732.6 Q1049,732.6 1050.6,751.7 Q1050.6,751.7 1051.6,761.8 Q1051.6,761.8 1053.6,766.6 Q1053.6,766.6 1055.1,768" stroke="rgb(0,0,0)" stroke-width="21" stroke-linecap="round" stroke-linejoin="round" fill="none" stroke-opacity="1.0" />

	<path d="M1497 221 Q1497,221 1497,221 Q1497,221 1497,221 Q1497,221 1497,227.6 Q1497,227.6 1494.4,260.5 Q1494.4,260.5 1486.8,324.8 Q1486.8,324.8 1475,405.9 Q1475,405.9 1461.4,497.1 Q1461.4,497.1 1450.7,582.9 Q1450.7,582.9 1445.4,652.4 Q1445.4,652.4 1444,710.9 Q1444,710.9 1444,760.9 Q1444,760.9 1444,800.1 Q1444,800.1 1443.5,823.8 Q1443.5,823.8 1442.9,831.6" stroke="rgb(0,0,0)" stroke-width="21" stroke-linecap="round" stroke-linejoin="round" fill="none" stroke-opacity="1.0" />
</svg>
