<?xml version="1.0" standalone="no"?><!DOCTYPE svg PUBLIC "-//W3C//DTD SVG 1.1//EN" "http://www.w3.org/Graphics/SVG/1.1/DTD/svg11.dtd"><svg class="icon" width="320px" height="320.00px" viewBox="0 0 1024 1024" version="1.1" xmlns="http://www.w3.org/2000/svg"><path d="M280.234667 426.666667L183.253333 329.472a43.093333 43.093333 0 0 1 0-60.885333 42.922667 42.922667 0 0 1 60.757334 0l127.402666 127.658666a42.922667 42.922667 0 0 1 0 60.842667l-127.402666 127.658667a42.922667 42.922667 0 0 1-60.757334 0 43.093333 43.093333 0 0 1 0-60.885334L280.234667 426.666667z"  /><path d="M85.333333 170.666667v682.666666h853.333334V170.666667H85.333333z m0-85.333334h853.333334a85.333333 85.333333 0 0 1 85.333333 85.333334v682.666666a85.333333 85.333333 0 0 1-85.333333 85.333334H85.333333a85.333333 85.333333 0 0 1-85.333333-85.333334V170.666667a85.333333 85.333333 0 0 1 85.333333-85.333334z"  /><path d="M426.666667 512h170.666666a42.666667 42.666667 0 0 1 0 85.333333h-170.666666a42.666667 42.666667 0 0 1 0-85.333333z"  /></svg>