<?xml version="1.0" standalone="no"?><!DOCTYPE svg PUBLIC "-//W3C//DTD SVG 1.1//EN" "http://www.w3.org/Graphics/SVG/1.1/DTD/svg11.dtd"><svg class="icon" width="320px" height="317.83px" viewBox="0 0 1031 1024" version="1.1" xmlns="http://www.w3.org/2000/svg"><path d="M807.26846484 684.38138245H221.89143476c-31.63833172 0-57.5057231-25.86739138-57.50572309-57.5057231V250.88192325c0-31.63833172 25.86739138-57.5057231 57.5057231-57.50572308h585.37703007c31.63833172 0 57.5057231 25.86739138 57.50572308 57.50572308v375.9937361c0 31.63833172-25.86739138 57.5057231-57.50572308 57.50572309z" fill="#e3e3e3" /><path d="M807.26846484 837.54892823H221.89143476c-31.63833172 0-57.5057231-25.86739138-57.50572309-57.50572309V346.61163939H864.7062945v433.49945917c0.06789342 31.57043829-25.79949796 57.43782967-57.43782967 57.43782967z" fill="#475762" /><path d="M290.3105572 323.29912107m-15.05201563 0a15.05201563 15.05201563 0 1 0 30.10403125 0 15.05201563 15.05201563 0 1 0-30.10403125 0Z" fill="#cacaca" /><path d="M333.31631616 323.29912107m-15.05201564 0a15.05201563 15.05201563 0 1 0 30.10403127 0 15.05201563 15.05201563 0 1 0-30.10403127 0Z" fill="#cacaca" /><path d="M376.3220751 323.29912107m-15.05201562 0a15.05201563 15.05201563 0 1 0 30.10403126 0 15.05201563 15.05201563 0 1 0-30.10403126 0Z" fill="#cacaca" /><path d="M323.08933689 442.6663252h-22.60424648c-6.81798618 0-12.37726721-5.55928103-12.37726721-12.37726721 0-6.81798618 5.55928103-12.37726721 12.37726721-12.37726721h22.60424648c6.81798618 0 12.37726721 5.55928103 12.37726721 12.37726721 0 6.81798618-5.55928103 12.37726721-12.37726721 12.37726721z" fill="#cacaca" /><path d="M374.65162006 422.24490446h-48.00064489c-8.82614404 0-16.0228461-7.19670206-16.0228461-16.0228461 0-8.82614404 7.19670206-16.0228461 16.0228461-16.0228461h48.0006449c8.82614404 0 16.0228461 7.19670206 16.0228461 16.0228461 0 8.82614404-7.19670206 16.0228461-16.0228461 16.0228461zM389.995532 482.80583126h-23.28744157c-8.82614404 0-16.0228461-7.19670206-16.02284611-16.0228461 0-8.82614404 7.19670206-16.0228461 16.0228461-16.02284611h23.28744159c8.82614404 0 16.0228461 7.19670206 16.0228461 16.02284611 0 8.82614404-7.26459548 16.0228461-16.0228461 16.0228461zM425.50378842 543.36675805h-22.26904035c-8.82614404 0-16.0228461-7.19670206-16.0228461-16.02284611 0-8.82614404 7.19670206-16.0228461 16.0228461-16.0228461h22.26904035c8.82614404 0 16.0228461 7.19670206 16.0228461 16.0228461 0 8.82614404-7.26459548 16.0228461-16.0228461 16.02284611z" fill="#f26397" /><path d="M569.95288249 536.23007395H490.33978238c-6.81798618 0-12.37726721-5.55928103-12.3772672-12.37726722 0-6.81798618 5.55928103-12.37726721 12.3772672-12.3772672H569.95288249c6.81798618 0 12.37726721 5.55928103 12.37726721 12.3772672-0.05244604 6.81798618-5.61172708 12.37726721-12.37726721 12.37726722z" fill="#6aceb1" /><path d="M697.48481167 543.36675805h-43.18021239c-8.82614404 0-16.0228461-7.19670206-16.0228461-16.02284611 0-8.82614404 7.19670206-16.0228461 16.0228461-16.0228461h43.18021239c8.82614404 0 16.0228461 7.19670206 16.0228461 16.0228461 0 8.82614404-7.19670206 16.0228461-16.0228461 16.02284611zM792.19612655 599.03935891H691.91755157c-8.82614404 0-16.0228461-7.19670206-16.0228461-16.0228461 0-8.82614404 7.19670206-16.0228461 16.0228461-16.0228461h100.27857498c8.82614404 0 16.0228461 7.19670206 16.0228461 16.0228461 0 8.75825063-7.26459548 16.0228461-16.02284611 16.0228461zM690.55968327 664.48861164h-48.0006449c-8.82614404 0-16.0228461-7.19670206-16.0228461-16.02284611 0-8.82614404 7.19670206-16.0228461 16.0228461-16.0228461h48.0006449c8.82614404 0 16.0228461 7.19670206 16.0228461 16.0228461 0 8.82614404-7.26459548 16.0228461-16.0228461 16.02284611zM635.02286923 725.04953843H587.02222434c-8.82614404 0-16.0228461-7.19670206-16.02284611-16.0228461 0-8.82614404 7.19670206-16.0228461 16.0228461-16.0228461h48.0006449c8.82614404 0 16.0228461 7.19670206 16.0228461 16.0228461 0 8.82614404-7.19670206 16.0228461-16.0228461 16.0228461zM792.19612655 543.36675805h-43.18021238c-8.82614404 0-16.0228461-7.19670206-16.0228461-16.02284611 0-8.82614404 7.19670206-16.0228461 16.0228461-16.0228461h43.18021237c8.82614404 0 16.0228461 7.19670206 16.02284611 16.0228461 0 8.82614404-7.26459548 16.0228461-16.02284611 16.02284611zM786.96833354 664.48861164H773.05018333c-8.82614404 0-16.0228461-7.19670206-16.0228461-16.02284611 0-8.82614404 7.19670206-16.0228461 16.0228461-16.0228461h13.91815021c8.82614404 0 16.0228461 7.19670206 16.0228461 16.0228461 0 8.82614404-7.19670206 16.0228461-16.0228461 16.02284611z" fill="#5f7786" /><path d="M554.97653214 482.80583126H451.91432712c-8.82614404 0-16.0228461-7.19670206-16.0228461-16.0228461 0-8.82614404 7.19670206-16.0228461 16.0228461-16.02284611h103.06220501c8.82614404 0 16.0228461 7.19670206 16.02284611 16.02284611 0 8.82614404-7.19670206 16.0228461-16.0228461 16.0228461zM587.02222434 599.03935891H483.96001932c-8.82614404 0-16.0228461-7.19670206-16.0228461-16.0228461 0-8.82614404 7.19670206-16.0228461 16.0228461-16.0228461H587.02222434c8.82614404 0 16.0228461 7.19670206 16.0228461 16.0228461-0.06789342 8.75825063-7.26459548 16.0228461-16.02284611 16.0228461zM587.02222434 664.48861164H483.96001932c-8.82614404 0-16.0228461-7.19670206-16.0228461-16.02284611 0-8.82614404 7.19670206-16.0228461 16.0228461-16.0228461H587.02222434c8.82614404 0 16.0228461 7.19670206 16.0228461 16.0228461-0.06789342 8.82614404-7.26459548 16.0228461-16.02284611 16.02284611zM509.01268971 725.04953843h-25.05267039c-8.82614404 0-16.0228461-7.19670206-16.0228461-16.0228461 0-8.82614404 7.19670206-16.0228461 16.0228461-16.0228461h25.05267039c8.82614404 0 16.0228461 7.19670206 16.0228461 16.0228461 0 8.82614404-7.19670206 16.0228461-16.0228461 16.0228461z" fill="#6aceb1" /><path d="M448.64517462 583.01194833h-17.9889943c-6.81798618 0-12.37726721-5.55928103-12.37726722-12.37726721 0-6.81798618 5.55928103-12.37726721 12.37726722-12.37726722h17.9889943c6.81798618 0 12.37726721 5.55928103 12.3772672 12.37726722 0 6.81798618-5.55928103 12.37726721-12.3772672 12.37726721zM448.64517462 629.7938227h-17.9889943c-6.81798618 0-12.37726721-5.55928103-12.37726722-12.37726723 0-6.81798618 5.55928103-12.37726721 12.37726722-12.3772672h17.9889943c6.81798618 0 12.37726721 5.55928103 12.3772672 12.3772672 0 6.81798618-5.55928103 12.37726721-12.3772672 12.37726723zM421.53056805 676.57569708h-21.76510971c-6.81798618 0-12.37726721-5.55928103-12.37726721-12.37726722 0-6.81798618 5.55928103-12.37726721 12.37726721-12.37726721H421.53056805c6.81798618 0 12.37726721 5.55928103 12.37726721 12.37726721-0.05244604 6.81798618-5.61172708 12.37726721-12.37726721 12.37726722zM403.22689748 720.68282302h-37.0793556c-6.81798618 0-12.37726721-5.55928103-12.3772672-12.37726721 0-6.81798618 5.55928103-12.37726721 12.3772672-12.37726722h37.0793556c6.81798618 0 12.37726721 5.55928103 12.37726721 12.37726722 0 6.81798618-5.55928103 12.37726721-12.37726721 12.37726721z" fill="#f26397" /><path d="M267.44791668 482.80583126h-29.26206216c-8.82614404 0-16.0228461-7.19670206-16.0228461-16.0228461 0-8.82614404 7.19670206-16.0228461 16.0228461-16.02284611h29.26206216c8.82614404 0 16.0228461 7.19670206 16.0228461 16.02284611 0 8.82614404-7.19670206 16.0228461-16.0228461 16.0228461zM267.44791668 543.36675805h-29.26206216c-8.82614404 0-16.0228461-7.19670206-16.0228461-16.02284611 0-8.82614404 7.19670206-16.0228461 16.0228461-16.0228461h29.26206216c8.82614404 0 16.0228461 7.19670206 16.0228461 16.0228461 0 8.82614404-7.19670206 16.0228461-16.0228461 16.02284611zM267.44791668 603.92768485h-29.26206216c-8.82614404 0-16.0228461-7.19670206-16.0228461-16.0228461 0-8.82614404 7.19670206-16.0228461 16.0228461-16.0228461h29.26206216c8.82614404 0 16.0228461 7.19670206 16.0228461 16.0228461 0 8.82614404-7.19670206 16.0228461-16.0228461 16.0228461zM267.44791668 664.48861164h-29.26206216c-8.82614404 0-16.0228461-7.19670206-16.0228461-16.02284611 0-8.82614404 7.19670206-16.0228461 16.0228461-16.0228461h29.26206216c8.82614404 0 16.0228461 7.19670206 16.0228461 16.0228461 0 8.82614404-7.19670206 16.0228461-16.0228461 16.02284611zM267.44791668 725.04953843h-29.26206216c-8.82614404 0-16.0228461-7.19670206-16.0228461-16.0228461 0-8.82614404 7.19670206-16.0228461 16.0228461-16.0228461h29.26206216c8.82614404 0 16.0228461 7.19670206 16.0228461 16.0228461 0 8.82614404-7.19670206 16.0228461-16.0228461 16.0228461zM267.44791668 785.61046524h-29.26206216c-8.82614404 0-16.0228461-7.19670206-16.0228461-16.02284611 0-8.82614404 7.19670206-16.0228461 16.0228461-16.02284611h29.26206216c8.82614404 0 16.0228461 7.19670206 16.0228461 16.02284611 0 8.82614404-7.19670206 16.0228461-16.0228461 16.02284611z" fill="#cacaca" /></svg>