<?xml version="1.0" standalone="no"?><!DOCTYPE svg PUBLIC "-//W3C//DTD SVG 1.1//EN" "http://www.w3.org/Graphics/SVG/1.1/DTD/svg11.dtd"><svg class="icon" width="320px" height="319.07px" viewBox="0 0 1027 1024" version="1.1" xmlns="http://www.w3.org/2000/svg"><path d="M372.352 1022.874h-35.02c-90.84 0-151.668-13.485-182.497-40.455-30.825-26.97-46.24-80.73-46.24-161.277v-109.34c0-39.725-11.216-73.984-33.651-102.778-22.435-28.794-25.184-43.19-72.243-43.19v-78.176c51.437 0 55.28-12.212 75.526-36.63 20.247-24.42 30.368-60.32 30.368-107.7V201.184c0-80.544 15.415-134.214 46.24-161.002C185.664 13.395 246.496 0 337.331 0h35.021v78.176h-38.304c-51.072 0-84.362 7.93-99.866 23.782-15.504 15.856-23.257 49.661-23.257 101.415v146.515c0 64.147-12.586 107.245-37.76 129.293-25.168 22.051-42.234 37.997-115.197 47.84 70.774 8.38 87.293 24.509 113.558 48.38 26.266 23.873 39.399 66.97 39.399 129.293v114.263c0 52.118 7.753 86.016 23.257 101.686 15.504 15.67 48.794 23.507 99.866 23.507h38.304v78.724z m283.149 0h35.02c90.839 0 151.668-13.485 182.497-40.455 30.825-26.97 46.24-80.73 46.24-161.277v-109.34c0-39.725 11.216-73.984 33.65-102.778 22.436-28.794 25.185-43.19 72.244-43.19v-78.176c-51.437 0-55.28-12.212-75.526-36.63-20.247-24.42-30.368-60.32-30.368-107.7V201.184c0-80.544-15.415-134.214-46.24-161.002C842.188 13.395 781.36 0 690.522 0H655.5v78.176h38.304c51.072 0 84.361 7.93 99.865 23.782 15.504 15.856 23.258 49.661 23.258 101.415v146.515c0 64.147 12.586 107.245 37.757 129.293 25.171 22.051 42.24 37.997 115.2 47.84-70.775 8.38-87.293 24.509-113.559 48.38-26.265 23.873-39.398 66.97-39.398 129.293v114.263c0 52.118-7.754 86.016-23.258 101.686-15.504 15.67-48.793 23.507-99.865 23.507H655.5v78.724zM291.027 711.766h112.31V822.83h-112.31V711.766z m168.103 0h112.31V822.83H459.13V711.766z m168.102 0h112.31V822.83h-112.31V711.766z" /></svg>